<svg class="destinations" viewBox="0 0 782.177 562.954"><path fill="#3f3d56" d="M156.24 405.547a152.427 152.427 0 0 1-3.277-5.068l1.701-1.053c1.04 1.68 2.127 3.363 3.233 5.002zM146.933 389.76a148.89 148.89 0 0 1-5.124-11.178l1.85-.758a147.126 147.126 0 0 0 5.056 11.028zm-9.304-22.743a149.108 149.108 0 0 1-3.207-11.87l1.952-.442a146.78 146.78 0 0 0 3.162 11.71zm-5.418-23.966a150.683 150.683 0 0 1-1.209-12.233l1.998-.116c.231 4.028.632 8.09 1.191 12.071zm.582-24.48l-1.999-.047a151.4 151.4 0 0 1 .79-12.266l1.989.21a149.362 149.362 0 0 0-.78 12.103zm2.548-24.1l-1.965-.373c.762-4.01 1.7-8.039 2.791-11.972l1.928.534a147.059 147.059 0 0 0-2.754 11.81zm6.477-23.353l-1.876-.692a148.878 148.878 0 0 1 4.736-11.355l1.812.846a146.78 146.78 0 0 0-4.672 11.201zm273.905-6.182a147.189 147.189 0 0 0-5.172-10.97l1.773-.927a149.166 149.166 0 0 1 5.241 11.12zm-263.651-15.794l-1.737-.992a150.108 150.108 0 0 1 6.539-10.417l1.648 1.132a148.26 148.26 0 0 0-6.45 10.277zm252.42-5.684a148.227 148.227 0 0 0-6.904-9.972l1.597-1.206c2.46 3.26 4.814 6.66 6.996 10.108zm-238.697-14.304l-1.55-1.264a150.761 150.761 0 0 1 8.151-9.205l1.441 1.386a148.604 148.604 0 0 0-8.042 9.083zm224.095-5.042a148.535 148.535 0 0 0-8.441-8.714l1.378-1.45a150.829 150.829 0 0 1 8.555 8.831zm-207.294-12.435l-1.324-1.499c3.06-2.701 6.271-5.31 9.542-7.751l1.197 1.603a148.805 148.805 0 0 0-9.415 7.647zm189.727-4.273a148.53 148.53 0 0 0-9.75-7.22l1.123-1.655a150.704 150.704 0 0 1 9.882 7.317zM202.02 197.181l-1.061-1.695a149.635 149.635 0 0 1 10.68-6.082l.916 1.777a147.645 147.645 0 0 0-10.535 6zm150.243-3.39a147.46 147.46 0 0 0-10.803-5.522l.836-1.818a149.917 149.917 0 0 1 10.95 5.598zm-128.715-7.72l-.767-1.847a148.944 148.944 0 0 1 11.53-4.238l.612 1.904a146.77 146.77 0 0 0-11.375 4.181zm106.689-2.413a146.718 146.718 0 0 0-11.567-3.662l.525-1.93c3.942 1.07 7.887 2.32 11.724 3.713zm-83.624-4.994l-.45-1.948c3.97-.921 8.035-1.687 12.079-2.278l.289 1.979c-3.99.583-7.999 1.339-11.918 2.247zm60.227-1.359a147.472 147.472 0 0 0-12.009-1.703l.2-1.99c4.07.407 8.165.988 12.172 1.727zm-36.247-2.146l-.126-1.996c4.068-.257 8.215-.348 12.29-.274l-.035 2c-4.025-.074-8.115.017-12.13.27zM421.746 282.145a147.051 147.051 0 0 0-1.73-5.702l1.901-.62a148.544 148.544 0 0 1 1.754 5.78zM409.55 170.144h-2c0-2.001.036-4.032.106-6.035l1.999.07c-.069 1.98-.104 3.987-.104 5.965zM410.502 152.152l-1.989-.212a170.912 170.912 0 0 1 1.723-12.069l1.97.354a168.652 168.652 0 0 0-1.704 11.927zm4.258-23.701l-1.937-.494a169.261 169.261 0 0 1 3.438-11.698l1.898.633a167.453 167.453 0 0 0-3.399 11.559zm318.963-21.1a167.446 167.446 0 0 0-4.902-11.006l1.797-.879a169.966 169.966 0 0 1 4.96 11.137zm-311.337-1.754l-1.847-.768a169.96 169.96 0 0 1 5.09-11.09l1.787.9a168.099 168.099 0 0 0-5.03 10.958zM723.139 85.72a169.148 169.148 0 0 0-6.428-10.192l1.653-1.127a170.751 170.751 0 0 1 6.504 10.313zm-289.918-1.647l-1.717-1.025a170.862 170.862 0 0 1 6.624-10.243l1.64 1.145a168.513 168.513 0 0 0-6.547 10.123zm276.35-18.252a170.28 170.28 0 0 0-7.815-9.174l1.475-1.35a172.253 172.253 0 0 1 7.908 9.282zM447.02 64.322l-1.554-1.26a171.58 171.58 0 0 1 8.013-9.192l1.46 1.367a169.565 169.565 0 0 0-7.919 9.085zm246.288-16.27a170.371 170.371 0 0 0-9.04-7.971l1.268-1.546a171.915 171.915 0 0 1 9.147 8.065zM463.485 46.74l-1.36-1.467c2.97-2.75 6.077-5.428 9.236-7.96l1.25 1.56a169.718 169.718 0 0 0-9.126 7.867zm211.198-13.966a168.853 168.853 0 0 0-10.082-6.603l1.035-1.711a170.755 170.755 0 0 1 10.201 6.681zm-192.409-1.096l-1.136-1.645a171.222 171.222 0 0 1 10.271-6.562l1.016 1.723a169.371 169.371 0 0 0-10.15 6.484zm171.798-11.371a167.908 167.908 0 0 0-10.924-5.092l.78-1.842a169.885 169.885 0 0 1 11.054 5.153zm-151.06-.853l-.89-1.791a170.147 170.147 0 0 1 11.1-5.023l.76 1.851a168.159 168.159 0 0 0-10.97 4.963zm128.873-8.53a167.05 167.05 0 0 0-11.543-3.47l.506-1.934a168.846 168.846 0 0 1 11.682 3.51zm-106.61-.593l-.622-1.9a169.866 169.866 0 0 1 11.715-3.377l.485 1.94c-3.884.97-7.78 2.092-11.577 3.337zm83.307-5.5a168.702 168.702 0 0 0-11.918-1.773l.222-1.987c4.024.451 8.081 1.054 12.06 1.793zM548.64 4.5l-.343-1.97A171.026 171.026 0 0 1 560.374.87l.202 1.99c-3.983.402-7.999.954-11.936 1.64zm36.009-2.36a172.256 172.256 0 0 0-12.05-.066l-.061-1.999c4.022-.12 8.14-.099 12.193.067zM739.574 124.512a169.152 169.152 0 0 0-1.717-5.712l1.904-.61a170.57 170.57 0 0 1 1.739 5.78z"></path><ellipse cx="155.071" cy="427.871" fill="#6c63ff" rx="33.312" ry="2.498"></ellipse><ellipse cx="420.737" cy="307.114" fill="#6c63ff" rx="33.312" ry="2.498"></ellipse><ellipse cx="748.865" cy="181.359" fill="#6c63ff" rx="33.312" ry="2.498"></ellipse><path fill="#3f3d56" d="M635.496 273.327l100.17-100.17 1.414 1.414-100.17 100.17zM438.227 286.126h168.228v2H438.227zM313.43 393.851l94.092-94.09 1.414 1.413-94.091 94.092zM172.56 406.884h112.43v2H172.56zM30.275 531.266l111.722-111.723 1.414 1.415L31.69 532.68z"></path><path fill="#3f3d56" d="M155.07 426.373a18.49 18.49 0 1 1 18.49-18.489 18.51 18.51 0 0 1-18.49 18.49zm0-34.978a16.49 16.49 0 1 0 16.49 16.489 16.508 16.508 0 0 0-16.49-16.49zM302.478 426.373a18.49 18.49 0 1 1 18.49-18.489 18.51 18.51 0 0 1-18.49 18.49zm0-34.978a16.49 16.49 0 1 0 16.49 16.489 16.508 16.508 0 0 0-16.49-16.49zM420.737 305.615a18.489 18.489 0 1 1 18.49-18.489 18.51 18.51 0 0 1-18.49 18.49zm0-34.978a16.489 16.489 0 1 0 16.49 16.49 16.508 16.508 0 0 0-16.49-16.49zM623.943 305.615a18.489 18.489 0 1 1 18.49-18.489 18.51 18.51 0 0 1-18.49 18.49zm0-34.978a16.489 16.489 0 1 0 16.49 16.49 16.507 16.507 0 0 0-16.49-16.49zM748.865 179.861a18.489 18.489 0 1 1 18.489-18.49 18.51 18.51 0 0 1-18.49 18.49zm0-34.978a16.489 16.489 0 1 0 16.489 16.489 16.508 16.508 0 0 0-16.49-16.489zM18.49 562.954a18.49 18.49 0 1 1 18.489-18.489 18.51 18.51 0 0 1-18.49 18.49zm0-34.978a16.49 16.49 0 1 0 16.489 16.489 16.508 16.508 0 0 0-16.49-16.49z"></path><path fill="#6c63ff" d="M155.07 298.786a33.312 33.312 0 0 0-33.312 33.312c0 18.398 33.313 79.117 33.313 79.117s33.312-60.719 33.312-79.117a33.312 33.312 0 0 0-33.312-33.312zm0 50.801a17.489 17.489 0 1 1 17.49-17.489 17.489 17.489 0 0 1-17.49 17.49zM420.737 173.864a33.312 33.312 0 0 0-33.312 33.313c0 18.398 33.312 79.117 33.312 79.117s33.313-60.72 33.313-79.117a33.312 33.312 0 0 0-33.313-33.313zm0 50.802a17.489 17.489 0 1 1 17.49-17.49 17.489 17.489 0 0 1-17.49 17.49zM748.865 53.94a33.312 33.312 0 0 0-33.313 33.312c0 18.398 33.313 79.117 33.313 79.117s33.312-60.72 33.312-79.117a33.312 33.312 0 0 0-33.312-33.313zm0 50.8a17.489 17.489 0 1 1 17.489-17.488 17.489 17.489 0 0 1-17.49 17.489z"></path></svg>