<svg fill="#525DF9" width="20px" height="20px" viewBox="0 0 1.2 1.2" version="1.1" xml:space="preserve" xmlns="http://www.w3.org/2000/svg" xmlns:xlink="http://www.w3.org/1999/xlink"><style type="text/css">
	.st0{opacity:0.2;fill:none;stroke:#000000;stroke-width:5.000000e-02;stroke-miterlimit:10;}
</style><g id="grid_system"/><g id="_icons"><g><path d="M0.83 0.21c-0.025 -0.015 -0.055 -0.005 -0.07 0.02c-0.015 0.025 -0.005 0.055 0.02 0.07c0.105 0.065 0.175 0.18 0.175 0.3c0 0.195 -0.155 0.35 -0.35 0.35s-0.35 -0.155 -0.35 -0.35c0 -0.125 0.07 -0.24 0.175 -0.305C0.45 0.28 0.46 0.25 0.445 0.23C0.43 0.205 0.4 0.195 0.375 0.21C0.235 0.29 0.15 0.44 0.15 0.6c0 0.25 0.2 0.45 0.45 0.45s0.45 -0.2 0.45 -0.45C1.05 0.44 0.965 0.295 0.83 0.21z"/><path d="M0.6 0.65c0.03 0 0.05 -0.02 0.05 -0.05V0.15c0 -0.03 -0.02 -0.05 -0.05 -0.05s-0.05 0.02 -0.05 0.05v0.45C0.55 0.63 0.57 0.65 0.6 0.65z"/></g></g></svg>